<svg width="42" height="76" viewBox="0 0 42 76" fill="none" xmlns="http://www.w3.org/2000/svg">
<path fill-rule="evenodd" clip-rule="evenodd" d="M1.61544 5.4018e-05C1.18706 5.4018e-05 0.775981 0.167113 0.473092 0.464408C0.170202 0.761703 0 1.16519 0 1.58565V4.71825V4.75825V74.4144C0 74.8349 0.170202 75.2384 0.473092 75.5357C0.775981 75.8329 1.18706 76 1.61544 76C2.04417 76.0004 2.45561 75.8337 2.75889 75.536C3.06214 75.2387 3.2327 74.8352 3.2327 74.4144V6.34384H16.1525V11.0234C11.375 13.3654 8.07346 18.2 8.07346 23.7825C8.07346 31.645 14.6063 38.0565 22.617 38.0565C30.6277 38.0565 37.1541 31.6455 37.1541 23.7825C37.1541 18.1997 33.8547 13.3656 29.0784 11.0234L29.0787 6.34384H40.3849C40.8133 6.34384 41.224 6.17678 41.5269 5.87948C41.8298 5.58219 42 5.17906 42 4.75824C42.0004 4.33742 41.8305 3.93393 41.5276 3.63627C41.2244 3.33861 40.8133 3.17121 40.3845 3.17121H3.23139V1.58561C3.23139 1.16479 3.06083 0.761305 2.75758 0.464001C2.45432 0.166343 2.04289 -0.000352801 1.61412 5.60646e-07L1.61544 5.4018e-05ZM19.3852 6.3439H25.8484V9.8835C24.8075 9.65026 23.7289 9.51506 22.6176 9.51506C21.5055 9.51506 20.4267 9.64991 19.3852 9.8835V6.3439ZM22.6176 12.6863C28.882 12.6863 33.9219 17.6338 33.9219 23.7819C33.9219 29.9299 28.8816 34.8847 22.6176 34.8847C16.3536 34.8847 11.3058 29.9311 11.3058 23.7819C11.3058 17.6326 16.3523 12.6863 22.6176 12.6863ZM22.6176 15.8543C22.1888 15.8543 21.7785 16.0217 21.4756 16.319C21.1727 16.6163 21.0025 17.0195 21.0025 17.4403V22.1985H17.7698C17.3414 22.1985 16.9303 22.3656 16.6274 22.6629C16.3245 22.9602 16.1543 23.3637 16.1543 23.7841C16.1543 24.2046 16.3245 24.6081 16.6274 24.9054C16.9303 25.2027 17.3414 25.3697 17.7698 25.3697H22.6179C23.0463 25.3697 23.457 25.2027 23.7599 24.9054C24.0628 24.6081 24.233 24.2046 24.2334 23.7841V17.4403C24.2334 17.0195 24.0632 16.6163 23.7599 16.319C23.457 16.0217 23.0459 15.8543 22.6176 15.8543Z" fill="#62432C"/>
<path fill-rule="evenodd" clip-rule="evenodd" d="M22.6176 12.6863C28.882 12.6863 33.9219 17.6338 33.9219 23.7819C33.9219 29.9299 28.8816 34.8847 22.6176 34.8847C16.3536 34.8847 11.3058 29.9311 11.3058 23.7819C11.3058 17.6326 16.3523 12.6863 22.6176 12.6863ZM21.4756 16.319C21.7785 16.0217 22.1888 15.8543 22.6176 15.8543C23.0459 15.8543 23.457 16.0217 23.7599 16.319C24.0632 16.6163 24.2334 17.0195 24.2334 17.4403V23.7841C24.233 24.2046 24.0628 24.6081 23.7599 24.9054C23.457 25.2027 23.0463 25.3697 22.6179 25.3697H17.7698C17.3414 25.3697 16.9303 25.2027 16.6274 24.9054C16.3245 24.6081 16.1543 24.2046 16.1543 23.7841C16.1543 23.3637 16.3245 22.9602 16.6274 22.6629C16.9303 22.3656 17.3414 22.1985 17.7698 22.1985H21.0025V17.4403C21.0025 17.0195 21.1727 16.6163 21.4756 16.319Z" fill="white"/>
</svg>
