<svg width="0" height="0" class="hidden">
  <symbol fill="none" xmlns="http://www.w3.org/2000/svg" viewBox="0 0 50 76" id="snowman">
    <path d="M19.5325 2.54346L19.2074 0.635312C19.1574 0.338043 19.3656 0.0568946 19.6744 0.0073547C19.9826 -0.042191 20.2745 0.164056 20.3245 0.461325L20.6496 2.36947C20.6996 2.66674 20.4914 2.94789 20.1826 2.99743H20.0907C19.8157 2.99743 19.5825 2.80731 19.5319 2.53482L19.5325 2.54346ZM17.9153 3.60869C18.0235 3.74062 18.1904 3.80688 18.3573 3.80688C18.4823 3.80688 18.6073 3.7654 18.7155 3.68302C18.9574 3.4929 18.9905 3.14609 18.7905 2.91507L17.5234 1.42002C17.3233 1.189 16.9645 1.14752 16.7232 1.34571C16.4813 1.53583 16.4481 1.88263 16.6482 2.11365L17.9153 3.60869ZM15.1892 4.63301L17.0653 5.31858C17.1321 5.34335 17.1984 5.35141 17.2653 5.35141C17.4904 5.35141 17.7073 5.21949 17.7991 4.99654C17.9073 4.71598 17.766 4.402 17.4659 4.29426L15.5899 3.6087C15.2979 3.50154 14.9729 3.64154 14.856 3.93075C14.7391 4.21995 14.8891 4.52527 15.1892 4.63301ZM15.1392 7.53196H15.2311L17.207 7.21798C17.5152 7.16843 17.724 6.88786 17.674 6.59002C17.624 6.29275 17.332 6.0865 17.0238 6.13605L15.0479 6.45003C14.7397 6.49957 14.5309 6.78014 14.5809 7.07798C14.6228 7.34242 14.8641 7.5406 15.1398 7.5406L15.1392 7.53196ZM17.5985 7.92832L16.0482 9.1589C15.8063 9.34902 15.7731 9.69582 15.9732 9.92684C16.0813 10.0588 16.2482 10.125 16.4151 10.125C16.5402 10.125 16.6652 10.0836 16.7733 10.0012L18.3237 8.77059C18.5656 8.58047 18.5987 8.23366 18.3987 8.00264C18.1986 7.77163 17.8399 7.73013 17.5985 7.92832ZM24.51 6.68105C24.218 6.57389 23.893 6.71389 23.7761 7.00309C23.6592 7.29229 23.8092 7.59763 24.1093 7.70537L25.9854 8.39093C26.0522 8.4157 26.1185 8.42377 26.1854 8.42377C26.4105 8.42377 26.6274 8.29184 26.7192 8.06889C26.8274 7.78834 26.6774 7.47436 26.386 7.36662L24.51 6.68105ZM23.893 5.41764C23.9348 5.68208 24.1762 5.88025 24.4518 5.88025H24.5437L26.5196 5.56628C26.8279 5.51673 27.0366 5.23616 26.9866 4.93832C26.9366 4.64105 26.6365 4.43479 26.3365 4.48435L24.3605 4.79833C24.0523 4.84787 23.8435 5.12844 23.8935 5.42628L23.893 5.41764ZM23.176 3.98889C23.2841 4.12082 23.451 4.18708 23.6179 4.18708C23.7429 4.18708 23.868 4.1456 23.9761 4.06322L25.5265 2.83264C25.7684 2.64252 25.8015 2.29571 25.6015 2.06469C25.4014 1.83367 25.0426 1.79218 24.8013 1.99037L23.251 3.22095C23.0091 3.41107 22.9759 3.75787 23.176 3.98889ZM21.8169 3.10514C21.8838 3.12991 21.9501 3.13798 22.017 3.13798C22.242 3.13798 22.459 3.00605 22.5508 2.7831L23.2597 0.974062C23.3679 0.693503 23.2265 0.379524 22.9265 0.271787C22.6346 0.164631 22.3095 0.304626 22.1926 0.593833L21.4837 2.40287C21.3756 2.68343 21.5169 2.9974 21.8169 3.10514ZM21.2331 28.0137C21.8332 28.0137 22.3252 27.5678 22.3252 27.0228C22.3252 26.4778 21.8332 26.0319 21.2331 26.0319C20.6329 26.0319 20.141 26.4778 20.141 27.0228C20.141 27.5678 20.6329 28.0137 21.2331 28.0137ZM28.7696 28.0137C29.3698 28.0137 29.8536 27.5678 29.8536 27.0228C29.8536 26.4778 29.3703 26.0319 28.7696 26.0319C28.1695 26.0319 27.6775 26.4778 27.6775 27.0228C27.6775 27.5678 28.1695 28.0137 28.7696 28.0137ZM22.1669 28.9222C22.242 28.7903 22.3751 28.6993 22.5251 28.6664C23.0171 28.5506 24.6925 28.179 25.1682 28.1877C25.752 28.2125 26.2934 28.4521 26.6935 28.8652C27.0936 29.2783 27.3024 29.8233 27.2774 30.385C27.2524 30.9139 27.0192 31.4007 26.5935 31.7562C26.1934 32.0949 25.6596 32.285 25.1182 32.285C25.0431 32.285 24.96 32.285 24.885 32.277C22.9759 32.0955 22.1507 29.469 22.1169 29.3612C22.075 29.2206 22.0919 29.0639 22.1669 28.932L22.1669 28.9222ZM23.4172 29.583C23.7173 30.2438 24.2761 31.1029 25.0013 31.1772C25.3183 31.202 25.6352 31.1109 25.8602 30.9295C25.9853 30.8223 26.1434 30.6322 26.1522 30.343C26.1603 30.0705 26.0603 29.806 25.869 29.6079C25.6771 29.4097 25.4107 29.2939 25.1269 29.2777C24.9519 29.2777 24.1849 29.4183 23.4097 29.5831L23.4172 29.583ZM19.549 32.5236L19.8659 32.2839C20.3829 33.1262 21.7 34.332 25.0013 34.3816H25.1764C28.5027 34.3816 29.9698 33.06 30.5619 32.2343L30.8701 32.4654C31.1202 32.6468 31.4702 32.6059 31.6621 32.3663C31.854 32.1266 31.804 31.7798 31.5621 31.5983L30.7282 30.979C30.5863 30.8719 30.3863 30.8384 30.2199 30.888C30.0449 30.9375 29.903 31.0695 29.8449 31.2429C29.8449 31.2596 29.1278 33.3739 25.0176 33.291C21.0743 33.2414 20.6742 31.3996 20.6661 31.3334C20.633 31.1433 20.4992 30.9785 20.316 30.9042C20.1241 30.8299 19.9159 30.8627 19.7572 30.9785L18.857 31.6641C18.6151 31.8542 18.5651 32.193 18.7651 32.432C18.957 32.6717 19.3152 32.7126 19.5571 32.5231L19.549 32.5236ZM27.5437 52.4118C27.5437 53.7662 26.4098 54.8649 25.0095 54.8649C23.6093 54.8649 22.4753 53.7662 22.4753 52.4118C22.4753 51.0573 23.6174 49.9587 25.0095 49.9587C26.4017 49.9587 27.5437 51.0573 27.5437 52.4118ZM26.6936 52.4118C26.6936 51.5113 25.9347 50.7762 25.0095 50.7762C24.0843 50.7762 23.3255 51.5113 23.3255 52.4118C23.3255 53.3122 24.0844 54.0474 25.0095 54.0474C25.9347 54.0474 26.6936 53.3122 26.6936 52.4118ZM24.7344 51.9244C24.7344 52.0978 24.5925 52.2297 24.4175 52.2297C24.2425 52.2297 24.1006 52.0891 24.1006 51.9244C24.1006 51.759 24.2425 51.619 24.4175 51.619C24.5925 51.619 24.7344 51.7596 24.7344 51.9244ZM24.5512 51.9244C24.5512 51.8501 24.4931 51.7924 24.4181 51.7924C24.3431 51.7924 24.2849 51.8501 24.2849 51.9244C24.2849 52.065 24.5512 52.065 24.5512 51.9244ZM25.9103 51.9244C25.9103 52.0978 25.7684 52.2297 25.5933 52.2297C25.4183 52.2297 25.2764 52.0891 25.2764 51.9244C25.2764 51.759 25.4183 51.619 25.5933 51.619C25.7684 51.619 25.9103 51.7596 25.9103 51.9244ZM25.7271 51.9244C25.7271 51.8501 25.6689 51.7924 25.5939 51.7924C25.5189 51.7924 25.4607 51.8501 25.4607 51.9244C25.4607 52.065 25.7271 52.065 25.7271 51.9244ZM24.735 52.9072C24.735 53.0806 24.5931 53.2126 24.4181 53.2126C24.243 53.2126 24.1011 53.072 24.1011 52.9072C24.1011 52.7419 24.243 52.6019 24.4181 52.6019C24.5931 52.6019 24.735 52.7425 24.735 52.9072ZM24.5518 52.9072C24.5518 52.8329 24.4937 52.7753 24.4186 52.7753C24.3436 52.7753 24.2855 52.8329 24.2855 52.9072C24.2855 53.0478 24.5518 53.0478 24.5518 52.9072ZM25.9108 52.9072C25.9108 53.0806 25.7689 53.2126 25.5939 53.2126C25.4189 53.2126 25.277 53.072 25.277 52.9072C25.277 52.7419 25.4189 52.6019 25.5939 52.6019C25.7689 52.6019 25.9108 52.7425 25.9108 52.9072ZM25.7276 52.9072C25.7276 52.8329 25.6695 52.7753 25.5945 52.7753C25.5195 52.7753 25.4613 52.8329 25.4613 52.9072C25.4613 53.0478 25.7276 53.0478 25.7276 52.9072ZM27.5449 60.5383C27.5449 61.8928 26.4109 62.9914 25.0107 62.9914C23.6104 62.9914 22.4765 61.8928 22.4765 60.5383C22.4765 59.1839 23.6186 58.0852 25.0107 58.0852C26.4028 58.0852 27.5449 59.1839 27.5449 60.5383ZM26.6947 60.5383C26.6947 59.6379 25.9358 58.9027 25.0107 58.9027C24.0856 58.9027 23.3267 59.6379 23.3267 60.5383C23.3267 61.4388 24.0856 62.1739 25.0107 62.1739C25.9358 62.1739 26.6947 61.4388 26.6947 60.5383ZM24.7356 60.051C24.7356 60.2244 24.5937 60.3563 24.4187 60.3563C24.2436 60.3563 24.1017 60.2157 24.1017 60.051C24.1017 59.8856 24.2436 59.7456 24.4187 59.7456C24.5937 59.7456 24.7356 59.8862 24.7356 60.051ZM24.5524 60.051C24.5524 59.9766 24.4943 59.919 24.4192 59.919C24.3442 59.919 24.2861 59.9766 24.2861 60.051C24.2861 60.1915 24.5524 60.1915 24.5524 60.051ZM25.9114 60.051C25.9114 60.2244 25.7695 60.3563 25.5945 60.3563C25.4195 60.3563 25.2776 60.2157 25.2776 60.051C25.2776 59.8856 25.4195 59.7456 25.5945 59.7456C25.7695 59.7456 25.9114 59.8862 25.9114 60.051ZM25.7282 60.051C25.7282 59.9766 25.6701 59.919 25.5951 59.919C25.5201 59.919 25.4619 59.9766 25.4619 60.051C25.4619 60.1915 25.7282 60.1915 25.7282 60.051ZM24.7362 61.0338C24.7362 61.2072 24.5943 61.3391 24.4192 61.3391C24.2442 61.3391 24.1023 61.1986 24.1023 61.0338C24.1023 60.8685 24.2442 60.7285 24.4192 60.7285C24.5943 60.7285 24.7362 60.869 24.7362 61.0338ZM24.553 61.0338C24.553 60.9595 24.4948 60.9019 24.4198 60.9019C24.3448 60.9019 24.2866 60.9595 24.2866 61.0338C24.2866 61.1744 24.553 61.1744 24.553 61.0338ZM25.912 61.0338C25.912 61.2072 25.7701 61.3391 25.5951 61.3391C25.42 61.3391 25.2781 61.1986 25.2781 61.0338C25.2781 60.8685 25.42 60.7285 25.5951 60.7285C25.7701 60.7285 25.912 60.869 25.912 61.0338ZM25.7288 61.0338C25.7288 60.9595 25.6707 60.9019 25.5956 60.9019C25.5206 60.9019 25.4625 60.9595 25.4625 61.0338C25.4625 61.1744 25.7288 61.1744 25.7288 61.0338ZM48.8722 42.8726L45.8209 45.3505C45.4458 45.6558 45.0039 45.8627 44.5206 45.9785C44.3875 46.3581 44.1624 46.7055 43.8205 46.978L43.3035 47.3991C42.8784 47.746 42.3533 47.928 41.8032 47.928C41.7363 47.928 41.6613 47.928 41.595 47.9199H41.5531C43.2954 50.7614 44.2462 54.0318 44.2462 57.4096C44.2462 67.6592 35.6263 76 25.0211 76C14.4171 76 5.79601 67.6585 5.79601 57.4096C5.79601 53.9985 6.76308 50.7447 8.51408 47.912C8.48093 47.912 8.45593 47.9287 8.4222 47.9287C8.35532 47.9287 8.28031 47.9368 8.21402 47.9368C7.6639 47.9368 7.13877 47.7553 6.71371 47.4079L6.19672 46.9867C5.85478 46.7142 5.62974 46.3588 5.49657 45.9872C5.01332 45.88 4.57137 45.6652 4.19628 45.3679L1.14504 42.89C-0.33902 41.6842 -0.389069 39.3637 1.04502 37.7114C2.47905 36.0677 4.84641 35.7043 6.3305 36.91L6.43866 37.0011C6.59684 36.4394 6.90563 35.9935 7.36386 35.7786C7.73894 35.6051 8.17276 35.5971 8.58914 35.7619C9.28929 36.0424 9.91442 36.8023 10.2563 37.7852C10.6145 38.8009 10.5895 39.8085 10.2563 40.5188C10.5733 40.5683 10.8733 40.6841 11.1484 40.8576L11.3985 37.364C11.4985 35.9681 12.6487 34.8948 14.0415 34.8038C12.9494 33.3087 12.1742 31.5994 11.8154 29.7905C11.5404 28.4032 11.5072 26.9907 11.6986 25.6033C10.8315 25.1902 10.1732 24.3975 9.99756 23.4065L9.60561 21.086C9.47245 20.2933 9.66377 19.4919 10.1476 18.8398C10.5308 18.3196 11.0728 17.948 11.6897 17.7498C11.1809 13.9191 15.9219 10.7636 18.9484 9.1589C20.2299 8.47942 21.204 8.078 21.3421 8.02113L21.3437 8.02046C21.4187 7.98763 21.5106 7.97898 21.5937 7.97898C21.7208 7.98586 22.6249 8.03914 23.893 8.23086C27.1962 8.73025 32.9698 10.169 33.9157 14.1733L34.5659 14.0742C35.391 13.9423 36.208 14.1318 36.8832 14.6031C37.5583 15.0738 38.0003 15.7674 38.1422 16.5606L38.5341 18.8811C38.7342 20.0789 38.1672 21.2264 37.192 21.8625C37.6502 22.8206 38.009 23.8282 38.2172 24.8687C39.0342 28.9654 37.7252 33.1774 34.8578 36.1754L35.5917 36.225C36.3506 36.2745 37.042 36.6132 37.5426 37.175C38.0427 37.7367 38.2846 38.447 38.2265 39.1821L38.0596 41.4698L38.1015 41.4284L38.6184 41.0072C38.9517 40.7347 39.3436 40.5861 39.7437 40.5198C39.4186 39.8095 39.3936 38.8019 39.7437 37.7862C40.0856 36.8034 40.7108 36.0515 41.4109 35.7629C41.836 35.5895 42.2611 35.5975 42.6362 35.7796C43.0863 35.9945 43.4032 36.4404 43.5614 36.9935L43.6695 36.9024C44.4034 36.3079 45.3535 36.0682 46.3788 36.2336C47.3628 36.3903 48.2711 36.9111 48.955 37.7038C50.389 39.3555 50.339 41.6767 48.855 42.8824L48.8722 42.8726ZM41.0437 40.3787C41.0937 40.4035 41.1856 40.4282 41.3356 40.3706C41.6357 40.2468 42.0858 39.817 42.3695 39.0162C42.7615 37.8847 42.5027 36.9185 42.1526 36.7532C42.1276 36.7365 42.0858 36.7284 42.0358 36.7284C41.9857 36.7284 41.9357 36.7365 41.8607 36.7699C41.5606 36.8857 41.1105 37.3149 40.8268 38.1243C40.4348 39.2558 40.6936 40.222 41.0437 40.3873L41.0437 40.3787ZM35.5163 37.3063H35.3994L34.9661 44.1613H35.0243C35.9745 44.2357 36.7833 43.5253 36.8503 42.6088L37.1004 39.0985C37.1335 38.6526 36.9835 38.2148 36.6834 37.876C36.3834 37.5372 35.9664 37.3391 35.5163 37.3063ZM30.9897 43.8889L31.423 37.0258L27.7297 36.778L27.2964 43.6412L30.9897 43.8889ZM17.2757 61.8849L18.5009 58.5896L11.9565 56.3347L10.7393 59.6219L17.275 61.8929L17.2757 61.8849ZM21.0358 51.7759L21.033 51.775L14.4913 49.5211L13.3074 52.7007L19.8518 54.9555L21.033 51.775L21.0358 51.7674V51.7759ZM23.7371 44.4997L16.5343 44.0123L15.8341 45.887L22.3786 48.1418L23.7289 44.4997L23.7371 44.4997ZM20.0938 36.2654L19.6605 43.1285L23.3119 43.3762L23.7451 36.5131L20.085 36.2654H20.0938ZM12.8241 17.5172L32.7995 14.3457C31.6656 9.96041 22.8369 9.15898 21.6617 9.07654C20.5614 9.54722 12.374 13.1981 12.8241 17.5172ZM13.3911 24.8016L24.5869 23.026L35.7827 21.2505C36.8579 21.077 37.5918 20.0942 37.4168 19.0451L37.0249 16.7246C36.9417 16.2211 36.658 15.7746 36.2247 15.4773C35.8828 15.2377 35.4827 15.1138 35.0745 15.1138C34.9663 15.1138 34.8576 15.1219 34.7494 15.1386L12.3578 18.6897C11.8327 18.7721 11.3739 19.0446 11.0657 19.4663C10.7575 19.8874 10.6324 20.3915 10.7156 20.8951L11.1075 23.2156C11.2826 24.256 12.3078 24.9664 13.3836 24.7929L13.3911 24.8016ZM12.9242 29.5839C13.3074 31.5167 14.1913 33.3418 15.4754 34.8616L18.1846 35.0431L19.5937 35.1255C19.5937 35.1255 19.6355 35.1335 19.6518 35.1422L24.8373 35.497L27.2384 35.6376C27.2384 35.6376 27.3053 35.6543 27.3466 35.6624L32.432 36.0092L33.3659 36.0755C36.459 33.3084 37.9174 29.1293 37.1092 25.074C36.9173 24.0993 36.5841 23.1746 36.1503 22.2822C36.0834 22.2989 36.0334 22.3237 35.9671 22.3317L13.5755 25.8828C13.4086 25.9076 13.2336 25.9243 13.0673 25.9243C12.9754 25.9243 12.8841 25.9076 12.8004 25.8995C12.6503 27.1221 12.6835 28.3608 12.9254 29.5833L12.9242 29.5839ZM12.274 40.9483C12.2071 41.8735 12.916 42.6743 13.8582 42.7405L15.6592 42.8643L16.0924 36.0012L14.3502 35.8854H14.2333C13.3413 35.8854 12.5911 36.5629 12.5243 37.4466L12.2742 40.9569L12.274 40.9483ZM7.63866 39.024C7.92185 39.8335 8.37254 40.2627 8.6726 40.3785C8.82263 40.4447 8.91452 40.42 8.96452 40.3865C9.31461 40.2212 9.57337 39.2551 9.18143 38.1235C8.89823 37.3141 8.44754 36.8849 8.14748 36.7691L8.14491 36.7683C8.07131 36.744 8.02188 36.7276 7.97244 36.7276C7.92242 36.7276 7.88056 36.7443 7.85555 36.7524C7.50547 36.9177 7.2467 37.8839 7.63865 39.0154L7.63866 39.024ZM8.0719 41.295C7.43804 40.9649 6.87977 40.2707 6.57158 39.3708C6.4547 39.0239 6.37967 38.6771 6.34654 38.3464L5.60451 37.7433C4.59557 36.9258 2.93646 37.223 1.91119 38.4121C0.88592 39.6012 0.869098 41.2288 1.87804 42.0463L4.92928 44.5242C5.07932 44.648 5.24621 44.7391 5.42125 44.8134C5.49627 44.4499 5.6463 44.095 5.91323 43.7977L8.08063 41.295L8.0719 41.295ZM9.139 46.424L11.315 43.9134C11.7401 43.418 11.6732 42.6828 11.165 42.2617L10.648 41.8406C10.4311 41.6591 10.1561 41.5681 9.87285 41.5681H9.76469C9.43962 41.5929 9.1477 41.7415 8.9395 41.9812L6.76347 44.4918C6.33837 44.9873 6.40526 45.7224 6.9135 46.1435L7.43048 46.5646C7.68054 46.7628 7.99747 46.8619 8.3144 46.8371C8.63947 46.8123 8.9308 46.6637 9.139 46.424ZM43.1022 57.4168C43.1022 52.461 40.9262 47.7784 37.1416 44.4584C36.6246 44.9619 35.9163 45.2759 35.1407 45.2759H34.9406L32.3394 45.1025L31.4805 45.0529C31.4805 45.0529 31.4555 45.0529 31.4386 45.0449L24.911 44.599L18.1502 62.794C18.067 63.017 17.8501 63.1576 17.6163 63.1576C17.5495 63.1576 17.4913 63.1495 17.4244 63.1247L16.4905 62.8027L15.6153 64.8675C15.5234 65.0823 15.3153 65.2062 15.0902 65.2062C15.0152 65.2062 14.9483 65.1895 14.8733 65.1647C14.5814 65.0489 14.4482 64.7355 14.5651 64.4544L15.4153 62.4311L14.0731 61.9604L13.1892 64.058C13.0973 64.2729 12.8892 64.3968 12.6641 64.3968C12.5891 64.3968 12.5222 64.3801 12.4472 64.3553C12.1553 64.2395 12.0221 63.9261 12.139 63.645L13.006 61.5969L11.6307 61.1181L10.7718 63.1581C10.6799 63.373 10.4718 63.4969 10.2467 63.4969C10.1717 63.4969 10.1048 63.4802 10.0298 63.4554C9.7379 63.3396 9.60472 63.0262 9.72161 62.7451L10.5636 60.7465L9.81348 60.4821C9.67159 60.4325 9.55528 60.3334 9.49655 60.2015C9.42967 60.0696 9.42153 59.9209 9.47154 59.7804L15.3489 43.948L13.773 43.8408C13.7311 43.8408 13.6898 43.8241 13.648 43.816C9.37138 47.161 6.92038 52.0999 6.92038 57.4185C6.92038 67.0648 15.032 74.9115 25.0111 74.9115C34.9901 74.9115 43.1018 67.0655 43.1018 57.4185L43.1022 57.4168ZM43.2273 44.4992L41.0512 41.9886C40.8093 41.7161 40.4674 41.5675 40.126 41.5675C39.851 41.5675 39.5759 41.6585 39.3509 41.84L38.8339 42.2611C38.3256 42.6742 38.2587 43.4174 38.6838 43.9128L40.8599 46.4234C41.0681 46.6631 41.36 46.8117 41.6851 46.8365C42.002 46.8613 42.3189 46.7702 42.569 46.564L43.086 46.1428C43.5942 45.7298 43.6611 44.9866 43.236 44.4912L43.2273 44.4992ZM48.0958 38.4121C47.5875 37.8256 46.9118 37.4373 46.1947 37.3221C45.5108 37.215 44.8775 37.3636 44.4024 37.7513L43.6604 38.3545C43.6273 38.6846 43.5523 39.032 43.4354 39.3788C43.1184 40.2793 42.5683 40.973 41.9351 41.3031L44.1025 43.8057C44.3694 44.1111 44.5194 44.4584 44.5944 44.8214C44.7776 44.7471 44.9445 44.648 45.0864 44.5322L48.1376 42.0543C49.1466 41.2368 49.1297 39.6012 48.1045 38.4202L48.0958 38.4121Z" fill="black"></path>
    <path fill-rule="evenodd" clip-rule="evenodd" d="M43.1022 57.4168C43.1022 52.461 40.9262 47.7784 37.1416 44.4584C36.6246 44.9619 35.9163 45.2759 35.1407 45.2759H34.9406L32.3394 45.1025L31.4805 45.0529C31.4805 45.0529 31.4555 45.0529 31.4386 45.0449L24.911 44.599L18.1502 62.794C18.067 63.017 17.8501 63.1576 17.6163 63.1576C17.5495 63.1576 17.4913 63.1495 17.4244 63.1247L16.4905 62.8027L15.6153 64.8675C15.5234 65.0823 15.3153 65.2062 15.0902 65.2062C15.0152 65.2062 14.9483 65.1895 14.8733 65.1647C14.5814 65.0489 14.4482 64.7355 14.5651 64.4544L15.4153 62.4311L14.0731 61.9604L13.1892 64.058C13.0973 64.2729 12.8892 64.3968 12.6641 64.3968C12.5891 64.3968 12.5222 64.3801 12.4472 64.3553C12.1553 64.2395 12.0221 63.9261 12.139 63.645L13.006 61.5969L11.6307 61.1181L10.7718 63.1581C10.6799 63.373 10.4718 63.4969 10.2467 63.4969C10.1717 63.4969 10.1048 63.4802 10.0298 63.4554C9.7379 63.3396 9.60472 63.0262 9.72161 62.7451L10.5636 60.7465L9.81348 60.4821C9.67159 60.4325 9.55528 60.3334 9.49655 60.2015C9.42967 60.0696 9.42153 59.9209 9.47154 59.7804L15.3489 43.948L13.773 43.8408C13.7311 43.8408 13.6898 43.8241 13.648 43.816C9.37138 47.161 6.92038 52.0999 6.92038 57.4185C6.92038 67.0648 15.032 74.9115 25.0111 74.9115C34.9901 74.9115 43.1018 67.0655 43.1018 57.4185L43.1022 57.4168ZM25.0095 54.8649C26.4098 54.8649 27.5437 53.7662 27.5437 52.4118C27.5437 51.0573 26.4017 49.9587 25.0095 49.9587C23.6174 49.9587 22.4753 51.0573 22.4753 52.4118C22.4753 53.7662 23.6093 54.8649 25.0095 54.8649ZM25.0107 62.9914C26.4109 62.9914 27.5449 61.8928 27.5449 60.5383C27.5449 59.1839 26.4028 58.0852 25.0107 58.0852C23.6186 58.0852 22.4765 59.1839 22.4765 60.5383C22.4765 61.8928 23.6104 62.9914 25.0107 62.9914Z" fill="white"></path>
    <path fill-rule="evenodd" clip-rule="evenodd" d="M12.9242 29.5839C13.3074 31.5167 14.1913 33.3418 15.4754 34.8616L18.1846 35.0431L19.5937 35.1255C19.5937 35.1255 19.6355 35.1335 19.6518 35.1422L24.8373 35.497L27.2384 35.6376C27.2384 35.6376 27.3053 35.6543 27.3466 35.6624L32.432 36.0092L33.3659 36.0755C36.459 33.3084 37.9174 29.1293 37.1092 25.074C36.9173 24.0993 36.5841 23.1746 36.1503 22.2822C36.0834 22.2989 36.0334 22.3237 35.9671 22.3317L13.5755 25.8828C13.4086 25.9076 13.2336 25.9243 13.0673 25.9243C12.9754 25.9243 12.8841 25.9076 12.8004 25.8995C12.6503 27.1221 12.6835 28.3608 12.9254 29.5833L12.9242 29.5839ZM22.3252 27.0228C22.3252 27.5678 21.8332 28.0137 21.2331 28.0137C20.6329 28.0137 20.141 27.5678 20.141 27.0228C20.141 26.4778 20.6329 26.0319 21.2331 26.0319C21.8332 26.0319 22.3252 26.4778 22.3252 27.0228ZM29.8536 27.0228C29.8536 27.5678 29.3698 28.0137 28.7696 28.0137C28.1695 28.0137 27.6775 27.5678 27.6775 27.0228C27.6775 26.4778 28.1695 26.0319 28.7696 26.0319C29.3703 26.0319 29.8536 26.4778 29.8536 27.0228ZM22.5251 28.6664C22.3751 28.6993 22.242 28.7903 22.1669 28.9222L22.1669 28.932C22.0919 29.0639 22.075 29.2206 22.1169 29.3612C22.1507 29.469 22.9759 32.0955 24.885 32.277C24.96 32.285 25.0431 32.285 25.1182 32.285C25.6596 32.285 26.1934 32.0949 26.5935 31.7562C27.0192 31.4007 27.2524 30.9139 27.2774 30.385C27.3024 29.8233 27.0936 29.2783 26.6935 28.8652C26.2934 28.4521 25.752 28.2125 25.1682 28.1877C24.6925 28.179 23.0171 28.5506 22.5251 28.6664ZM19.8659 32.2839L19.549 32.5236L19.5571 32.5231C19.3152 32.7126 18.957 32.6717 18.7651 32.432C18.5651 32.193 18.6151 31.8542 18.857 31.6641L19.7572 30.9785C19.9159 30.8627 20.1241 30.8299 20.316 30.9042C20.4992 30.9785 20.633 31.1433 20.6661 31.3334C20.6742 31.3996 21.0743 33.2414 25.0176 33.291C29.1278 33.3739 29.8449 31.2596 29.8449 31.2429C29.903 31.0695 30.0449 30.9375 30.2199 30.888C30.3863 30.8384 30.5863 30.8719 30.7282 30.979L31.5621 31.5983C31.804 31.7798 31.854 32.1266 31.6621 32.3663C31.4702 32.6059 31.1202 32.6468 30.8701 32.4654L30.5619 32.2343C29.9698 33.06 28.5027 34.3816 25.1764 34.3816H25.0013C21.7 34.332 20.3829 33.1262 19.8659 32.2839Z" fill="white"></path>
    <path d="M48.0958 38.4121C47.5875 37.8256 46.9118 37.4373 46.1947 37.3221C45.5108 37.215 44.8775 37.3636 44.4024 37.7513L43.6604 38.3545C43.6273 38.6846 43.5523 39.032 43.4354 39.3788C43.1184 40.2793 42.5683 40.973 41.9351 41.3031L44.1025 43.8057C44.3694 44.1111 44.5194 44.4584 44.5944 44.8214C44.7776 44.7471 44.9445 44.648 45.0864 44.5322L48.1376 42.0543C49.1466 41.2368 49.1297 39.6012 48.1045 38.4202L48.0958 38.4121Z" fill="#419BA1"></path>
    <path d="M43.2273 44.4992L41.0512 41.9886C40.8093 41.7161 40.4674 41.5675 40.126 41.5675C39.851 41.5675 39.5759 41.6585 39.3509 41.84L38.8339 42.2611C38.3256 42.6742 38.2587 43.4174 38.6838 43.9128L40.8599 46.4234C41.0681 46.6631 41.36 46.8117 41.6851 46.8365C42.002 46.8613 42.3189 46.7702 42.569 46.564L43.086 46.1428C43.5942 45.7298 43.6611 44.9866 43.236 44.4912L43.2273 44.4992Z" fill="#419BA1"></path>
    <path d="M41.0437 40.3787C41.0937 40.4035 41.1856 40.4282 41.3356 40.3706C41.6357 40.2468 42.0858 39.817 42.3695 39.0162C42.7615 37.8847 42.5027 36.9185 42.1526 36.7532C42.1276 36.7365 42.0858 36.7284 42.0358 36.7284C41.9857 36.7284 41.9357 36.7365 41.8607 36.7699C41.5606 36.8857 41.1105 37.3149 40.8268 38.1243C40.4348 39.2558 40.6936 40.222 41.0437 40.3873L41.0437 40.3787Z" fill="#419BA1"></path>
    <path d="M8.0719 41.295C7.43804 40.9649 6.87977 40.2707 6.57158 39.3708C6.4547 39.0239 6.37967 38.6771 6.34654 38.3464L5.60451 37.7433C4.59557 36.9258 2.93646 37.223 1.91119 38.4121C0.88592 39.6012 0.869098 41.2288 1.87804 42.0463L4.92928 44.5242C5.07932 44.648 5.24621 44.7391 5.42125 44.8134C5.49627 44.4499 5.6463 44.095 5.91323 43.7977L8.08063 41.295L8.0719 41.295Z" fill="#419BA1"></path>
    <path d="M9.139 46.424L11.315 43.9134C11.7401 43.418 11.6732 42.6828 11.165 42.2617L10.648 41.8406C10.4311 41.6591 10.1561 41.5681 9.87285 41.5681H9.76469C9.43962 41.5929 9.1477 41.7415 8.9395 41.9812L6.76347 44.4918C6.33837 44.9873 6.40526 45.7224 6.9135 46.1435L7.43048 46.5646C7.68054 46.7628 7.99747 46.8619 8.3144 46.8371C8.63947 46.8123 8.9308 46.6637 9.139 46.424Z" fill="#419BA1"></path>
    <path d="M7.63866 39.024C7.92185 39.8335 8.37254 40.2627 8.6726 40.3785C8.82263 40.4447 8.91452 40.42 8.96452 40.3865C9.31461 40.2212 9.57337 39.2551 9.18143 38.1235C8.89823 37.3141 8.44754 36.8849 8.14748 36.7691L8.14491 36.7683C8.07131 36.744 8.02188 36.7276 7.97244 36.7276C7.92242 36.7276 7.88056 36.7443 7.85555 36.7524C7.50547 36.9177 7.2467 37.8839 7.63865 39.0154L7.63866 39.024Z" fill="#419BA1"></path>
    <path d="M12.8241 17.5172L32.7995 14.3457C31.6656 9.96041 22.8369 9.15898 21.6617 9.07654C20.5614 9.54722 12.374 13.1981 12.8241 17.5172Z" fill="#419BA1"></path>
    <path d="M35.7827 21.2505C36.8579 21.077 37.5918 20.0942 37.4168 19.0451L37.0249 16.7246C36.9417 16.2211 36.658 15.7746 36.2247 15.4773C35.8828 15.2377 35.4827 15.1138 35.0745 15.1138C34.9663 15.1138 34.8576 15.1219 34.7494 15.1386L12.3578 18.6897C11.8327 18.7721 11.3739 19.0446 11.0657 19.4663C10.7575 19.8874 10.6324 20.3915 10.7156 20.8951L11.1075 23.2156C11.2826 24.256 12.3078 24.9664 13.3836 24.7929L13.3911 24.8016L24.5869 23.026L35.7827 21.2505Z" fill="#419BA1"></path>
    <path d="M30.9897 43.8889L31.423 37.0258L27.7297 36.778L27.2964 43.6412L30.9897 43.8889Z" fill="#419BA1"></path>
    <path d="M35.5163 37.3063H35.3994L34.9661 44.1613H35.0243C35.9745 44.2357 36.7833 43.5253 36.8503 42.6088L37.1004 39.0985C37.1335 38.6526 36.9835 38.2148 36.6834 37.876C36.3834 37.5372 35.9664 37.3391 35.5163 37.3063Z" fill="#419BA1"></path>
    <path d="M20.0938 36.2654L19.6605 43.1285L23.3119 43.3762L23.7451 36.5131L20.0938 36.2654Z" fill="#419BA1"></path>
    <path d="M12.274 40.9483C12.2071 41.8735 12.916 42.6743 13.8582 42.7405L15.6592 42.8643L16.0924 36.0012L14.3502 35.8854H14.2333C13.3413 35.8854 12.5911 36.5629 12.5243 37.4466L12.2742 40.9569L12.274 40.9483Z" fill="#419BA1"></path>
    <path d="M23.7371 44.4997L16.5343 44.0123L15.8341 45.887L22.3786 48.1418L23.7289 44.4997L23.7371 44.4997Z" fill="#419BA1"></path>
    <path d="M21.033 51.775L14.4913 49.5211L13.3074 52.7007L19.8518 54.9555L21.033 51.775Z" fill="#419BA1"></path>
    <path d="M17.2757 61.8849L18.5009 58.5896L11.9565 56.3347L10.7393 59.6219L17.275 61.8929L17.2757 61.8849Z" fill="#419BA1"></path>
    <path d="M19.5319 2.53482L18.7905 2.91507C18.9905 3.14609 18.9574 3.4929 18.7155 3.68302C18.6073 3.7654 18.4823 3.80688 18.3573 3.80688C18.1904 3.80688 18.0235 3.74062 17.9153 3.60869L17.4659 4.29426C17.766 4.402 17.9073 4.71598 17.7991 4.99654C17.7073 5.21949 17.4904 5.35141 17.2653 5.35141C17.1984 5.35141 17.1321 5.34335 17.0653 5.31858L17.0238 6.13605C17.332 6.0865 17.624 6.29275 17.674 6.59002C17.724 6.88786 17.5152 7.16843 17.207 7.21798L17.5985 7.92832C17.8399 7.73013 18.1986 7.77163 18.3987 8.00264C18.5987 8.23366 18.5656 8.58047 18.3237 8.77059L18.9484 9.1589C20.2299 8.47942 21.204 8.078 21.3421 8.02113L21.3437 8.02046C21.4187 7.98763 21.5106 7.97898 21.5937 7.97898C21.7208 7.98586 22.6249 8.03914 23.893 8.23086L24.1093 7.70537C23.8092 7.59763 23.6592 7.29229 23.7761 7.00309C23.893 6.71389 24.218 6.57389 24.51 6.68105L24.5437 5.88025H24.4518C24.1762 5.88025 23.9348 5.68208 23.893 5.41764L23.8935 5.42628C23.8435 5.12844 24.0523 4.84787 24.3605 4.79833L23.9761 4.06322C23.868 4.1456 23.7429 4.18708 23.6179 4.18708C23.451 4.18708 23.2841 4.12082 23.176 3.98889C22.9759 3.75787 23.0091 3.41107 23.251 3.22095L22.5508 2.7831C22.459 3.00605 22.242 3.13798 22.017 3.13798C21.9501 3.13798 21.8838 3.12991 21.8169 3.10514C21.5169 2.9974 21.3756 2.68343 21.4837 2.40287L20.6496 2.36947C20.6996 2.66674 20.4914 2.94789 20.1826 2.99743H20.0907C19.8157 2.99743 19.5825 2.80731 19.5319 2.53482Z" fill="white"></path>
  </symbol>
  <symbol xmlns="http://www.w3.org/2000/svg" viewBox="0 0 102 88" id="snowmobile">
    <path d="M73.3864 78.184C73.3864 77.5298 72.9506 77.0932 72.2957 77.0932L59.8646 77.094C58.9922 77.094 58.2293 76.9852 57.4657 76.6581L55.9391 76.1127L49.6145 73.8224C49.7233 73.7137 49.8328 73.4954 49.8328 73.3866C50.1599 72.4054 49.9416 71.3145 49.1787 70.5516L46.0168 67.3897C45.908 67.281 45.908 67.0627 45.908 67.0627C45.908 66.9539 45.908 66.8444 46.0168 66.7356L54.7405 58.0119C56.4854 56.267 57.4666 53.9774 57.4666 51.4688C57.4666 48.961 56.4854 46.6707 54.7405 44.9258L49.07 39.2553C48.8517 39.037 48.8517 38.7099 49.07 38.4916L51.7961 35.7655C52.1232 36.8563 52.7773 37.7279 53.541 38.6005L60.7373 45.7968C61.6098 46.6692 62.6997 47.1051 63.7906 47.1051C64.8813 47.1051 65.9713 46.6692 66.8438 45.7968C68.4792 44.1614 68.4792 41.3258 66.8438 39.6905L60.3016 33.1483C60.1928 33.0395 60.0832 32.8212 60.1928 32.6029L62.4831 23.9888C62.7014 23.0076 62.5919 22.0264 62.4831 21.0444C63.3555 21.3715 64.3367 21.4802 65.4275 21.4802C69.3531 21.4802 72.7334 18.9724 74.0416 15.5922C74.0416 15.5922 74.0416 15.4835 74.1504 15.4835C74.4774 14.5022 74.6957 13.5211 74.6957 12.4302C74.6957 11.3395 74.4774 10.2495 74.1504 9.377C72.5142 5.66969 69.1339 3.16187 65.2083 3.16187C64.5542 3.16187 64.0088 3.27064 63.3547 3.38017C63.3547 1.52652 61.8281 0 59.9745 0C58.1209 0 56.5943 1.52658 56.5943 3.38017C56.5943 4.68847 57.2485 5.77915 58.3392 6.32456C56.9214 7.95991 56.0489 10.0319 56.0489 12.4308C56.0489 13.4121 56.2672 14.3932 56.4847 15.3752C56.376 15.3752 56.2664 15.3752 56.1577 15.2665C53.7587 14.8306 51.2509 15.5935 49.506 17.3385L36.4209 30.4236C35.0031 31.8414 34.2402 33.8038 34.2402 35.767C34.2402 37.839 35.0039 39.6925 36.4209 41.1103L46.2345 50.9239C46.3432 51.0327 46.3432 51.251 46.3432 51.251C46.3432 51.3597 46.3432 51.4693 46.2345 51.578L33.9123 64.1171C33.1486 64.8808 32.7128 65.9708 32.7128 67.0615C32.7128 67.2798 32.7128 67.4974 32.8215 67.7157L10.9037 59.7557H15.0475C20.718 59.7557 26.3877 60.5193 31.7313 62.1546C32.2767 62.3729 32.9308 61.9363 33.0396 61.3909C33.2579 60.8456 32.8213 60.1914 32.2759 60.0826C28.2415 58.8831 23.9887 58.1202 19.8449 57.7923L16.1383 54.1939C16.0296 54.0851 16.0296 53.9756 16.0296 53.8668C16.0296 53.5397 16.2479 53.3214 16.5749 53.3214H22.7909H23.0092L35.7665 57.9019C36.3119 58.1202 36.9661 57.7931 37.1843 57.2477C37.4026 56.7023 37.0756 56.0482 36.5302 55.8299L23.6634 51.1414C23.3363 51.0326 23.0092 50.9231 22.6822 50.9231H16.4662C14.9397 50.9231 13.7401 52.1226 13.7401 53.6492C13.7401 54.4129 14.0672 55.067 14.5038 55.6116L16.4662 57.574H14.8309H8.61497C8.2879 57.574 8.0696 57.6828 7.85129 57.9011L6.76054 58.9918C2.39917 63.3532 0 69.2422 0 75.4573C0 76.1115 0.435846 76.5481 1.09075 76.5481C1.7449 76.5481 2.18151 76.1122 2.18151 75.4573C2.18151 70.0051 4.25354 64.9887 7.96085 60.9544L18.7564 64.88L17.884 65.7525L17.5569 65.4254C17.121 64.9896 16.4661 64.9896 16.0303 65.4254C15.5945 65.8612 15.5945 66.5162 16.0303 66.952L16.3574 67.2791L14.722 68.9144L14.3934 68.5881C13.9576 68.1523 13.3027 68.1523 12.8669 68.5881C12.431 69.0239 12.431 69.6788 12.8669 70.1147L13.1939 70.4417L11.5586 72.0771L11.2315 71.75C10.7957 71.3142 10.1408 71.3142 9.70493 71.75C9.26908 72.1859 9.26908 72.8408 9.70493 73.2766L10.032 73.6037L8.39665 75.239L7.96081 74.912C7.52496 74.4761 6.87005 74.5849 6.43423 75.0207C5.99838 75.4566 6.10715 76.1115 6.543 76.5473L6.97884 76.9831C6.65177 77.5285 6.43347 78.1827 6.3247 78.8368H5.77932C5.12517 78.8368 4.68856 79.3822 4.68856 79.9276C4.68856 80.4729 5.23394 81.0183 5.77932 81.0183H6.3247C6.43346 81.6725 6.76054 82.3266 7.08837 82.872L6.65253 83.3078C6.21668 83.7437 6.21668 84.3986 6.65253 84.8344C6.87083 85.0527 7.1979 85.1615 7.41621 85.1615C7.74328 85.1615 7.96159 85.0527 8.17989 84.8344L8.61573 84.3985C9.16111 84.8344 9.81526 85.0527 10.4694 85.271V85.8164C10.4694 86.4705 10.9052 86.9071 11.4506 87.0159H11.5594C12.1048 87.0159 12.6501 86.58 12.6501 86.0347V85.4893H14.9404V85.9251C14.9404 86.5793 15.3763 87.0159 16.0312 87.0159C16.6853 87.0159 17.122 86.58 17.122 85.9251V85.4893H19.4123V85.9251C19.4123 86.5793 19.8481 87.0159 20.503 87.0159C21.1572 87.0159 21.5938 86.58 21.5938 85.9251V85.4893H23.8841V85.9251C23.8841 86.5793 24.3199 87.0159 24.9748 87.0159C25.629 87.0159 26.0656 86.58 26.0656 85.9251V85.4893H28.3559V85.9251C28.3559 86.5793 28.7918 87.0159 29.4467 87.0159C30.1008 87.0159 30.5374 86.58 30.5374 85.9251V85.4893H32.8277V85.9251C32.8277 86.5793 33.2636 87.0159 33.9185 87.0159C34.5726 87.0159 35.0092 86.58 35.0092 85.9251V85.4893H37.2996V85.9251C37.2996 86.5793 37.7354 87.0159 38.3903 87.0159C39.0445 87.0159 39.4811 86.58 39.4811 85.9251V85.4893H41.7714V85.9251C41.7714 86.5793 42.2072 87.0159 42.8621 87.0159C43.5163 87.0159 43.9529 86.58 43.9529 85.9251V85.4893H44.28C44.9341 85.4893 45.5883 85.3805 46.1336 85.271L46.2424 85.8164C46.3512 86.2522 46.7878 86.58 47.3331 86.58H47.6602C48.2056 86.3617 48.5327 85.8164 48.4239 85.2718L48.3151 84.8359C48.9693 84.5088 49.6234 84.1818 50.1688 83.8547L50.4958 84.2905C50.7142 84.5088 51.0412 84.7264 51.3683 84.7264C51.5866 84.7264 51.9137 84.6176 52.0224 84.5081C52.4583 84.0722 52.5678 83.4173 52.1312 82.9815L51.8041 82.5456L53.4395 80.9103L53.7666 81.2374C53.9849 81.4557 54.3119 81.5644 54.5302 81.5644C54.7485 81.5644 55.0756 81.4557 55.2939 81.2374C55.7298 80.8015 55.7298 80.1466 55.2939 79.7108L54.9669 79.3837L55.621 78.7296L56.6022 79.0566C57.5834 79.3837 58.6743 79.602 59.7641 79.602H72.3038C72.9503 79.2742 73.3864 78.8389 73.3864 78.184ZM66.8434 12.9756L71.8598 14.8292V14.938C71.2057 16.5733 69.6791 17.6641 67.9342 17.7729C66.7347 17.7729 65.6439 17.4459 64.6627 16.5734C64.0085 15.9193 63.4632 15.1556 63.3544 14.2831L66.8434 12.9756ZM59.9742 2.18057C60.6283 2.18057 61.1737 2.72595 61.1737 3.38009C61.1737 4.03424 60.6283 4.57962 59.9742 4.57962C59.32 4.57962 58.7747 4.03424 58.7747 3.38009C58.7747 2.72519 59.3193 2.18057 59.9742 2.18057ZM65.2081 5.34246C67.8254 5.34246 70.1149 6.76027 71.3144 8.94092L61.6095 12.4307C61.5007 12.4307 61.5007 12.5395 61.3912 12.5395C61.2824 12.5395 61.2824 12.6483 61.2824 12.6483C61.2824 12.6483 61.1736 12.757 61.1736 12.8666C61.1736 12.9753 61.0648 12.9753 61.0648 13.0849V13.3032V13.5215V13.6302C61.1736 15.3751 61.9373 17.0104 63.2455 18.2101C63.7909 18.7555 64.4451 19.0825 65.2079 19.4096C61.391 19.3008 58.338 16.2477 58.338 12.4308C58.2292 8.50442 61.3914 5.34246 65.2081 5.34246ZM35.4391 68.479C35.112 68.152 34.8937 67.6066 34.8937 67.0612C34.8937 66.5159 35.112 65.9705 35.4391 65.6434L47.7605 53.322C48.8512 52.2313 48.8512 50.5959 47.7605 49.5051L37.9469 39.6915C35.8748 37.6195 35.8748 34.1304 37.9469 32.0586L51.032 18.9735C52.2315 17.774 54.0852 17.1198 55.8301 17.4469C57.2479 17.6652 58.4474 18.5377 59.3199 19.6276C60.1924 20.7183 60.4107 22.2449 60.1924 23.5532L57.9021 32.0586C57.6838 33.0399 57.9021 34.021 58.5562 34.6759L63.0272 39.1469L59.974 42.2001L54.8489 37.0751C53.5406 35.7668 52.9952 33.6949 53.4311 31.8411L55.6118 23.7717C55.7205 23.2263 55.3935 22.5721 54.8481 22.4634C54.3027 22.3546 53.6486 22.6817 53.5398 23.227L51.3591 31.2965C51.1408 31.9507 51.1408 32.496 51.1408 33.1502L47.4335 36.9655C46.3428 38.0563 46.3428 39.6916 47.4335 40.7825L53.104 46.453C54.4123 47.7613 55.176 49.5062 55.176 51.4694C55.176 53.323 54.4123 55.0678 53.104 56.4858L45.144 64.4458L43.0719 62.3738C42.6361 61.938 41.9812 61.938 41.5454 62.3738C41.1095 62.8096 41.1095 63.4646 41.5454 63.9004L43.8357 66.1907C43.8349 66.193 43.8342 66.1952 43.8334 66.1975C43.7254 66.5223 43.6174 66.8471 43.6174 67.1719C43.6174 67.9356 43.9444 68.5897 44.381 69.1343L47.5429 72.2962C47.6517 72.405 47.7612 72.6233 47.6517 72.8416C47.5429 73.1687 47.2159 73.2774 46.9976 73.1687L36.0931 69.2431C35.8755 68.917 35.6579 68.6986 35.441 68.481L35.4391 68.479ZM21.4806 66.0808C22.5714 66.0808 23.443 66.9533 23.443 68.0432C23.443 69.134 22.5706 70.0056 21.4806 70.0056C20.3899 70.0056 19.5182 69.1332 19.5182 68.0432C19.5182 66.9525 20.3907 66.0808 21.4806 66.0808ZM11.994 83.3092C10.0316 83.3092 8.39552 81.6739 8.39552 79.7108C8.39552 77.7484 10.0309 76.1123 11.994 76.1123C13.9564 76.1123 15.5924 77.7477 15.5924 79.7108C15.5924 81.6739 13.9571 83.3092 11.994 83.3092ZM41.2178 83.3092C40.1271 83.3092 39.2554 82.4368 39.2554 81.3468C39.2554 80.2561 40.1279 79.3844 41.2178 79.3844C42.3086 79.3844 43.1802 80.2569 43.1802 81.3468C43.1802 82.4376 42.3078 83.3092 41.2178 83.3092ZM35.1108 83.3092C34.02 83.3092 33.1483 82.4368 33.1483 81.3468C33.1483 80.2561 34.0208 79.3844 35.1108 79.3844C36.2015 79.3844 37.0732 80.2569 37.0732 81.3468C37.0739 82.4376 36.2015 83.3092 35.1108 83.3092ZM50.159 80.9103C49.1778 81.8915 47.9784 82.5456 46.6692 82.9823C46.1239 83.2006 45.4697 83.2006 44.9244 83.3094C45.2514 82.764 45.4697 82.0011 45.4697 81.347C45.4697 79.0566 43.6161 77.2031 41.3259 77.2031C40.1263 77.2031 39.0355 77.7485 38.2726 78.6209C37.5089 77.7484 36.419 77.2031 35.2194 77.2031C32.9291 77.2031 31.0755 79.0567 31.0755 81.347C31.0755 82.1106 31.2938 82.7648 31.6209 83.3094H16.4645C17.2282 82.3281 17.7728 81.1287 17.7728 79.7109C17.7728 76.7665 15.5921 74.3675 12.6478 74.0404L17.5546 69.1336C18.0999 70.8785 19.6266 72.1869 21.589 72.1869C23.8793 72.1869 25.7329 70.3332 25.7329 68.043C25.7329 67.8247 25.7329 67.6071 25.6241 67.3888L53.5394 77.5296L50.159 80.9103Z" fill="black"></path>
    <path d="M35.4391 68.479C35.112 68.152 34.8937 67.6066 34.8937 67.0612C34.8937 66.5159 35.112 65.9705 35.4391 65.6434L47.7605 53.322C48.8512 52.2313 48.8512 50.5959 47.7605 49.5051L37.9469 39.6915C35.8748 37.6195 35.8748 34.1304 37.9469 32.0586L51.032 18.9735C52.2315 17.774 54.0852 17.1198 55.8301 17.4469C57.2479 17.6652 58.4474 18.5377 59.3199 19.6276C60.1924 20.7183 60.4107 22.2449 60.1924 23.5532L57.9021 32.0586C57.6838 33.0399 57.9021 34.021 58.5562 34.6759L63.0272 39.1469L59.974 42.2001L54.8489 37.0751C53.5406 35.7668 52.9952 33.6949 53.4311 31.8411L55.6118 23.7717C55.7205 23.2263 55.3935 22.5721 54.8481 22.4634C54.3027 22.3546 53.6486 22.6817 53.5398 23.227L51.3591 31.2965C51.1408 31.9507 51.1408 32.496 51.1408 33.1502L47.4335 36.9655C46.3428 38.0563 46.3428 39.6916 47.4335 40.7825L53.104 46.453C54.4123 47.7613 55.176 49.5062 55.176 51.4694C55.176 53.323 54.4123 55.0678 53.104 56.4858L45.144 64.4458L43.0719 62.3738C42.6361 61.938 41.9812 61.938 41.5454 62.3738C41.1095 62.8096 41.1095 63.4646 41.5454 63.9004L43.8357 66.1907L43.8334 66.1975C43.7254 66.5223 43.6174 66.8471 43.6174 67.1719C43.6174 67.9356 43.9444 68.5897 44.381 69.1343L47.5429 72.2962C47.6517 72.405 47.7612 72.6233 47.6517 72.8416C47.5429 73.1687 47.2159 73.2774 46.9976 73.1687L36.0931 69.2431C35.8755 68.917 35.6579 68.6986 35.441 68.481L35.4391 68.479Z"></path>
    <path d="M65.2081 5.34246C67.8254 5.34246 70.1149 6.76027 71.3144 8.94092L61.6095 12.4307C61.5007 12.4307 61.5007 12.5395 61.3912 12.5395C61.2824 12.5395 61.2824 12.6483 61.2824 12.6483C61.2824 12.6483 61.1736 12.757 61.1736 12.8666C61.1736 12.9753 61.0648 12.9753 61.0648 13.0849V13.3032V13.5215V13.6302C61.1736 15.3751 61.9373 17.0104 63.2455 18.2101C63.7909 18.7555 64.4451 19.0825 65.2079 19.4096C61.391 19.3008 58.338 16.2477 58.338 12.4308C58.2292 8.50442 61.3914 5.34246 65.2081 5.34246Z"></path>
    <path d="M59.9742 2.18057C60.6283 2.18057 61.1737 2.72595 61.1737 3.38009C61.1737 4.03424 60.6283 4.57962 59.9742 4.57962C59.32 4.57962 58.7747 4.03424 58.7747 3.38009C58.7747 2.72519 59.3193 2.18057 59.9742 2.18057Z"></path>
    <path d="M72.9503 61.8273L76.3305 67.7153C76.4393 67.9336 76.7663 68.0424 77.0942 67.9336C77.3125 67.8249 77.4212 67.4978 77.3125 67.17L73.714 60.9556C73.6052 60.7373 73.3869 60.7373 73.2782 60.7373H68.6983C68.5895 60.7373 68.3712 60.8461 68.2625 60.8461L59.8659 69.2427C59.6476 69.461 59.6476 69.6785 59.7571 69.8968L61.1749 72.2958C61.2837 72.5141 61.502 72.5141 61.6108 72.5141H68.6982C69.0253 72.5141 69.2436 72.2958 69.2436 71.9687C69.2436 71.6416 69.0253 71.4233 68.6982 71.4233H61.9369L60.9557 69.6785L68.9157 61.7184H72.9502L72.9503 61.8273Z" fill="black"></path>
    <path d="M70.4423 38.8191C70.3335 38.6008 70.0064 38.492 69.6786 38.6008C69.4603 38.7095 69.3515 39.0366 69.4603 39.3644C70.1145 40.4552 70.3328 41.6548 70.3328 42.8542C70.3328 44.5991 69.5691 46.344 68.2607 47.5428C67.4971 48.3064 66.6254 48.7423 65.6435 49.0693C65.0981 48.9606 64.5527 48.9606 63.8986 48.851C62.4808 48.7423 61.1725 48.9598 59.973 49.7235C59.4276 50.0506 59.2093 50.7047 59.5372 51.2501C59.8642 51.7954 60.5184 51.9042 61.0637 51.6859C61.8274 51.2501 62.8086 51.0318 63.681 51.1405C74.9125 52.2313 85.2717 57.5739 92.9048 65.9705H88.4338C87.6701 65.9705 86.9072 66.6247 86.9072 67.4971C86.9072 68.2608 87.5614 68.9149 88.4338 68.9149H92.9048C90.1787 72.5134 86.4714 75.1308 82.1093 76.3295C81.5639 76.5478 81.2368 77.0932 81.3456 77.6378C81.4544 78.0737 81.891 78.4015 82.4363 78.4015H82.7634C87.6702 76.9837 91.9229 73.9305 94.9762 69.7874C95.1945 69.4603 95.3032 69.1333 95.5215 68.8062H96.2852C97.0489 68.8062 97.8118 68.152 97.8118 67.3884C97.8118 66.6247 97.1576 65.8618 96.2852 65.8618H95.5215C95.3032 65.426 95.0857 64.9894 94.7579 64.5535C90.178 59.4284 84.6171 55.394 78.5101 52.6679L70.4423 38.8191ZM69.0245 48.4144C70.5511 46.9966 71.4235 45.0342 71.4235 42.9622V42.8534L76.7668 52.0129C73.8224 50.8134 70.7692 49.9409 67.6073 49.3956C68.1527 49.1781 68.6974 48.851 69.0245 48.4144Z" fill="black"></path>
    <path d="M61.0637 51.6859C60.5184 51.9042 59.8642 51.7954 59.5372 51.2501V54V55L48 67.3884L51.5 71.5V73L59 76H74.5L82.1093 76.3295C86.4714 75.1308 90.1787 72.5134 92.9048 68.9149H88.4338C87.5614 68.9149 86.9072 68.2608 86.9072 67.4971C86.9072 66.6247 87.6701 65.9705 88.4338 65.9705H92.9048C85.2717 57.5739 74.9125 52.2313 63.681 51.1405C62.8086 51.0318 61.8274 51.2501 61.0637 51.6859Z"></path>
    <path d="M101.411 79.7106C99.6659 77.9657 96.9398 77.9657 95.1949 79.7106L90.0699 84.8357H82.8727L71.5333 65.3168C71.2062 64.7714 70.5521 64.6626 70.0067 64.8809C69.4614 65.208 69.3526 65.8621 69.5709 66.4075L80.257 84.8361H72.297C71.6428 84.8361 71.2062 85.272 71.2062 85.9269C71.2062 86.581 71.6421 87.0177 72.297 87.0177H93.7787C97.1589 87.0177 100.322 85.0552 101.739 82.0012C102.175 81.2375 102.065 80.2553 101.411 79.7106ZM93.8866 84.8349H93.1229L96.7214 81.2364C97.5938 80.364 98.9021 80.364 99.7746 81.1277C98.6846 83.418 96.3952 84.8349 93.8866 84.8349Z" fill="black"></path>
  </symbol>
</svg>