<svg width="80" height="80" viewBox="0 0 80 80" fill="none" xmlns="http://www.w3.org/2000/svg">
<path d="M22.5323 80H8.68218C3.92766 80 0 76.9293 0 73.2121V6.78787C0 3.0707 3.92766 0 8.68218 0H22.5323C27.2868 0 31.2145 3.0707 31.2145 6.78787V73.2121C31.4212 76.9293 27.4936 80 22.5323 80Z" fill="#FFC700"/>
<path d="M71.111 79.9999H57.4676C52.713 79.9999 48.7854 76.9292 48.7854 73.2121V6.78784C48.7854 3.07067 52.713 -3.05176e-05 57.4676 -3.05176e-05H71.3177C76.0722 -3.05176e-05 79.9999 3.07067 79.9999 6.78784V73.2121C79.7931 76.9292 76.0722 79.9999 71.111 79.9999Z" fill="#FFC700"/>
</svg>
