<svg width="90" height="80" viewBox="0 0 90 80" fill="none" xmlns="http://www.w3.org/2000/svg">
<path d="M55.0439 0.628636C52.9877 -0.349245 50.7733 -0.18626 48.8752 1.11758L23.7258 20.1863H5.85237C2.68892 20.1863 0 22.9569 0 26.2165V53.5972C0 56.8568 2.68892 59.6275 5.85237 59.6275H23.5677L48.8752 78.8591C49.9824 79.674 51.0896 80 52.355 80C53.304 80 54.0949 79.837 55.0439 79.3481C56.942 78.3702 58.2074 76.2515 58.2074 73.9697V6.00699C58.2074 3.72526 57.1002 1.60652 55.0439 0.628636Z" fill="#FFC700"/>
<path d="M63.269 48.3818C62.3199 48.3818 61.6873 49.0337 61.6873 50.0116C61.6873 50.9895 62.3199 51.6414 63.269 51.6414C69.5959 51.6414 74.6574 46.4261 74.6574 39.9068C74.6574 33.3876 69.5959 28.1723 63.269 28.1723C62.3199 28.1723 61.6873 28.8242 61.6873 29.8021C61.6873 30.78 62.3199 31.4319 63.269 31.4319C67.856 31.4319 71.4939 35.1804 71.4939 39.9068C71.4939 44.6333 67.856 48.3818 63.269 48.3818Z" fill="#FFC700"/>
<path d="M63.269 59.7905C73.8665 59.7905 82.566 50.8265 82.566 39.9069C82.566 28.9872 73.8665 20.0233 63.269 20.0233C62.3199 20.0233 61.6873 20.6752 61.6873 21.6531C61.6873 22.631 62.3199 23.2829 63.269 23.2829C72.1266 23.2829 79.4025 30.78 79.4025 39.9069C79.4025 49.0338 72.1266 56.5308 63.269 56.5308C62.3199 56.5308 61.6873 57.1828 61.6873 58.1606C61.6873 59.1385 62.4781 59.7905 63.269 59.7905Z" fill="#FFC700"/>
</svg>
