<svg width="90" height="80" viewBox="0 0 90 80" fill="none" xmlns="http://www.w3.org/2000/svg">
<path d="M53.3925 0.628636C51.398 -0.349245 49.25 -0.18626 47.4089 1.11758L23.014 20.1863H5.67679C2.60825 20.1863 0 22.9569 0 26.2165V53.5972C0 56.8568 2.60825 59.6275 5.67679 59.6275H22.8606L47.4089 78.8591C48.4829 79.674 49.5569 80 50.7843 80C51.7048 80 52.472 79.837 53.3925 79.3481C55.2336 78.3702 56.4611 76.2515 56.4611 73.9697V6.00699C56.4611 3.72526 55.3871 1.60652 53.3925 0.628636Z" fill="#FFC700"/>
<path d="M63.2367 28.1723C62.2848 28.1723 61.6501 28.8242 61.6501 29.8021C61.6501 30.78 62.2848 31.4319 63.2367 31.4319C67.8377 31.4319 71.4868 35.1804 71.4868 39.9068C71.4868 44.6333 67.8377 48.3818 63.2367 48.3818C62.2848 48.3818 61.6501 49.0337 61.6501 50.0116C61.6501 50.9895 62.2848 51.6414 63.2367 51.6414C69.5829 51.6414 74.6599 46.4261 74.6599 39.9068C74.6599 33.3876 69.5829 28.1723 63.2367 28.1723Z" fill="#FFC700"/>
</svg>
